REM DIRINDEX 1\2\6,1\2\7,1\2\8,1\2\9,1\3\10,1\3\11,1\4\12,1\4\13,1\4\14,1\5\15,1\5\16,1\5\17
REM DIRNAME folder01,folder02,folder03,folder04,folder05,folder06,folder07,folder08,folder09,folder10,folder11,folder12,folder13,folder14,folder15,folder16,folder17
TITLE ""
FILE "1900_2_sec10_0917_0933.mp3" MP3
  TRACK 01 AUDIO
    TITLE "0:"
    INDEX 01 00:00:00
  TRACK 02 AUDIO
    TITLE "13:cjc020_3958"
    INDEX 01 00:00:17
  TRACK 03 AUDIO
    TITLE "0:"
    INDEX 01 00:01:26
  TRACK 04 AUDIO
    TITLE "14:cjc020_3959"
    INDEX 01 00:01:32
  TRACK 05 AUDIO
    TITLE "0:"
    INDEX 01 00:02:55
  TRACK 06 AUDIO
    TITLE "13:cjc020_3960"
    INDEX 01 00:03:35
  TRACK 07 AUDIO
    TITLE "0:"
    INDEX 01 00:04:64
  TRACK 08 AUDIO
    TITLE "14:cjc020_3961"
    INDEX 01 00:04:66
  TRACK 09 AUDIO
    TITLE "0:"
    INDEX 01 00:07:31
  TRACK 10 AUDIO
    TITLE "13:cjc020_3962"
    INDEX 01 00:08:07
  TRACK 11 AUDIO
    TITLE "0:"
    INDEX 01 00:09:34
  TRACK 12 AUDIO
    TITLE "14:cjc020_3963"
    INDEX 01 00:09:38
  TRACK 13 AUDIO
    TITLE "0:"
    INDEX 01 00:12:38
  TRACK 14 AUDIO
    TITLE "13:cjc020_3964"
    INDEX 01 00:13:18
  TRACK 15 AUDIO
    TITLE "0:"
    INDEX 01 00:14:43
  TRACK 16 AUDIO
    TITLE "14:cjc020_3965"
    INDEX 01 00:14:45
  TRACK 17 AUDIO
    TITLE "0:"
    INDEX 01 00:18:31
  TRACK 18 AUDIO
    TITLE "13:cjc020_3966"
    INDEX 01 00:19:15
  TRACK 19 AUDIO
    TITLE "0:"
    INDEX 01 00:20:18
  TRACK 20 AUDIO
    TITLE "14:cjc020_3967"
    INDEX 01 00:20:22
  TRACK 21 AUDIO
    TITLE "0:"
    INDEX 01 00:23:57
  TRACK 22 AUDIO
    TITLE "13:cjc020_3968"
    INDEX 01 00:24:33
  TRACK 23 AUDIO
    TITLE "0:"
    INDEX 01 00:25:54
  TRACK 24 AUDIO
    TITLE "14:cjc020_3969"
    INDEX 01 00:25:56
  TRACK 25 AUDIO
    TITLE "0:"
    INDEX 01 00:27:43
  TRACK 26 AUDIO
    TITLE "13:cjc020_3970"
    INDEX 01 00:28:27
  TRACK 27 AUDIO
    TITLE "0:"
    INDEX 01 00:29:29
  TRACK 28 AUDIO
    TITLE "14:cjc020_3971"
    INDEX 01 00:29:34
  TRACK 29 AUDIO
    TITLE "0:"
    INDEX 01 00:30:42
  TRACK 30 AUDIO
    TITLE "13:cjc020_3972"
    INDEX 01 00:31:22
  TRACK 31 AUDIO
    TITLE "0:"
    INDEX 01 00:32:35
  TRACK 32 AUDIO
    TITLE "14:cjc020_3973"
    INDEX 01 00:32:45
  TRACK 33 AUDIO
    TITLE "0:"
    INDEX 01 00:33:50
  TRACK 34 AUDIO
    TITLE "13:cjc020_3974"
    INDEX 01 00:34:30
  TRACK 35 AUDIO
    TITLE "0:"
    INDEX 01 00:35:45
  TRACK 36 AUDIO
    TITLE "14:cjc020_3975"
    INDEX 01 00:35:49
  TRACK 37 AUDIO
    TITLE "0:"
    INDEX 01 00:39:25
  TRACK 38 AUDIO
    TITLE "13:cjc020_3976"
    INDEX 01 00:40:03
  TRACK 39 AUDIO
    TITLE "0:"
    INDEX 01 00:41:20
  TRACK 40 AUDIO
    TITLE "14:cjc020_3977"
    INDEX 01 00:41:24
  TRACK 41 AUDIO
    TITLE "0:"
    INDEX 01 00:43:60
  TRACK 42 AUDIO
    TITLE "13:cjc020_3978"
    INDEX 01 00:44:40
  TRACK 43 AUDIO
    TITLE "0:"
    INDEX 01 00:45:53
  TRACK 44 AUDIO
    TITLE "14:cjc020_3979"
    INDEX 01 00:45:57
  TRACK 45 AUDIO
    TITLE "0:"
    INDEX 01 00:49:51
  TRACK 46 AUDIO
    TITLE "13:cjc020_3980"
    INDEX 01 00:50:31
  TRACK 47 AUDIO
    TITLE "0:"
    INDEX 01 00:51:40
  TRACK 48 AUDIO
    TITLE "14:cjc020_3981"
    INDEX 01 00:51:42
  TRACK 49 AUDIO
    TITLE "0:"
    INDEX 01 00:52:71
  TRACK 50 AUDIO
    TITLE "13:cjc020_3982"
    INDEX 01 00:53:51
  TRACK 51 AUDIO
    TITLE "0:"
    INDEX 01 00:54:50
  TRACK 52 AUDIO
    TITLE "14:cjc020_3983"
    INDEX 01 00:54:54
  TRACK 53 AUDIO
    TITLE "0:"
    INDEX 01 00:57:17
  TRACK 54 AUDIO
    TITLE "13:cjc020_3984"
    INDEX 01 00:57:74
  TRACK 55 AUDIO
    TITLE "0:"
    INDEX 01 00:59:02
  TRACK 56 AUDIO
    TITLE "14:cjc020_3985"
    INDEX 01 00:59:04
  TRACK 57 AUDIO
    TITLE "0:"
    INDEX 01 01:01:40
  TRACK 58 AUDIO
    TITLE "13:cjc020_3986"
    INDEX 01 01:02:18
  TRACK 59 AUDIO
    TITLE "0:"
    INDEX 01 01:03:22
  TRACK 60 AUDIO
    TITLE "14:cjc020_3987"
    INDEX 01 01:03:29
  TRACK 61 AUDIO
    TITLE "0:"
    INDEX 01 01:05:64
  TRACK 62 AUDIO
    TITLE "13:cjc020_3988"
    INDEX 01 01:06:43
  TRACK 63 AUDIO
    TITLE "0:"
    INDEX 01 01:07:68
  TRACK 64 AUDIO
    TITLE "14:cjc020_3989"
    INDEX 01 01:07:70
  TRACK 65 AUDIO
    TITLE "0:"
    INDEX 01 01:11:11
  TRACK 66 AUDIO
    TITLE "13:cjc020_3990"
    INDEX 01 01:11:68
  TRACK 67 AUDIO
    TITLE "0:"
    INDEX 01 01:13:00
  TRACK 68 AUDIO
    TITLE "14:cjc020_3991"
    INDEX 01 01:13:02
  TRACK 69 AUDIO
    TITLE "0:"
    INDEX 01 01:14:10
